<svg width="514" height="219" viewBox="0 0 514 219" fill="none" xmlns="http://www.w3.org/2000/svg">
<path d="M173.691 5C130.969 5 90.0548 40.5974 81.4509 87.1966M173.691 210.492C119.728 208.716 87.3247 170.754 80.7146 123.784C80.0797 118.881 80.0253 116.298 80.0466 111.755" stroke="black" stroke-width="9" stroke-linecap="round" stroke-linejoin="round"/>
<path d="M175.522 28.0549H173.69C134.071 28.0549 108.845 58.8082 102.758 93.712M175.522 187.436H173.69C131.871 185.549 104.661 160.125 101.611 118.271" stroke="black" stroke-width="9" stroke-linecap="round" stroke-linejoin="round"/>
<path d="M174.606 187.437C193.944 187.437 209.062 179.052 221.781 168.55C228.651 162.878 242.215 151.851 243.372 131.302C244.915 103.88 248.408 81.3715 257.048 56.1224M174.606 28.0553C189.399 28.7228 200.255 33.0673 213.079 38.5791L257.048 56.1224M257.048 56.1224L275.826 64.1416" stroke="black" stroke-width="9" stroke-linecap="round" stroke-linejoin="round"/>
<path d="M171.4 210.492C197.422 210.492 218.65 203.781 236.438 182.926C243.795 173.991 266.209 174.907 275.369 184.43M171.4 5.00089C192.775 5.70436 207.125 14.1092 225.904 21.0393C246.972 28.8144 246.972 29.0584 269.415 37.0776L293.689 45.598" stroke="black" stroke-width="9" stroke-linecap="round" stroke-linejoin="round"/>
<path d="M337.658 8.50757C385.045 8.50757 430.176 53.6155 430.176 108.747C430.176 163.879 397.682 211.994 337.658 213.999" stroke="black" stroke-width="9" stroke-linejoin="round"/>
<path d="M339.49 214C315.742 214 292.56 202.671 275.342 184.429M339.49 8.50846C310.07 9.49106 289.602 19.5458 273.994 38.0792" stroke="black" stroke-width="9" stroke-linecap="round" stroke-linejoin="round"/>
<path d="M337.658 31.5635C382.88 31.5635 409.108 72.6619 409.108 113.76C409.108 160.372 381.523 188.94 337.658 190.945" stroke="black" stroke-width="9" stroke-linejoin="round"/>
<path d="M293.689 45.4019C305.147 37.1206 319.719 32.3419 336.742 31.5638H338.574M338.116 190.945H336.742C291.52 190.945 265.292 149.847 265.292 108.748C265.292 95.1017 267.657 83.0017 272.102 72.6621C273.387 69.6732 274.658 67.3325 276.284 64.6429" stroke="black" stroke-width="9" stroke-linecap="round" stroke-linejoin="round"/>
<path d="M79.7977 111.755L14.8661 84.6884C-2.18597 78.6762 6.51611 54.1175 19.5693 58.6282L81.1718 87.1966" stroke="black" stroke-width="9" stroke-linecap="round" stroke-linejoin="round"/>
<path d="M425.596 77.6733L497.046 93.8667C515.824 98.2225 509.87 123.282 497.046 120.776L430.176 105.74" stroke="black" stroke-width="9" stroke-linejoin="round"/>
</svg>